<?xml version="1.0" encoding="utf-8"?>
<!-- Generator: Adobe Illustrator 25.4.1, SVG Export Plug-In . SVG Version: 6.00 Build 0)  -->
<svg version="1.1" xmlns="http://www.w3.org/2000/svg" xmlns:xlink="http://www.w3.org/1999/xlink" x="0px" y="0px"
	 viewBox="0 0 1920 1080" style="enable-background:new 0 0 1920 1080;" xml:space="preserve">
<style type="text/css">
	.st0{display:none;}
	.st1{display:inline;}
	.st2{fill:#EAA200;}
	.st3{fill:#2B2D2D;}
	.st4{fill:#333333;}
	.st5{fill:#909393;}
	.st6{fill:#FFFFFF;}
</style>
<g id="Layer_1" class="st0">
	<g class="st1">
		<g>
			<path d="M491.24-501.88c0-14.99-1.25-30.1,0.31-44.92c2.06-19.56,5.48-39.08,9.85-58.27c8.3-36.45,22.11-70.95,40.15-103.71
				c38.14-69.24,91.08-124.23,158.83-165c26.16-15.75,53.71-28.55,82.58-38.27c24.05-8.09,48.75-13.71,73.9-17.83
				c34.02-5.57,68.17-4.02,102.21-3.1c24.85,0.67,49.39,6.06,73.52,12.55c79.18,21.3,147.1,61.66,203.51,121.06
				c46.45,48.92,80.06,105.61,99.39,170.37c5.58,18.7,9.64,37.87,13.78,56.96c1.86,8.57,1.4,17.66,3.38,26.18
				c4.54,19.57,2.94,39.36,2.58,59.02c-0.28,15.14-2.62,30.28-4.59,45.35c-2.98,22.71-8.13,44.97-14.84,66.9
				c-14.66,47.86-37.08,91.75-67.02,131.78c-36.09,48.25-80.3,87.38-132.62,117.3c-37.16,21.25-76.51,37.02-118.42,45.87
				c-17.02,3.59-34.33,5.9-51.53,8.61c-27.32,4.3-54.86,3.66-82.15,1.12c-22.87-2.13-45.63-6.04-68.04-11.79
				c-48.6-12.47-93.73-32.48-135.34-60.47c-48.58-32.67-88.91-73.5-121.09-122.39c-25.15-38.2-44.07-79.29-55.54-123.55
				c-4.89-18.89-8.76-38.17-11.2-57.52c-2.35-18.58-2.26-37.46-3.24-56.21C490.15-501.84,490.69-501.86,491.24-501.88z
				 M918.93-862.61c-200.44-0.47-360.99,162.43-362.3,358.86c-1.37,205.28,162.29,361.68,352.95,365.88
				c210.86,4.64,371.58-164.73,371.92-361.52C1281.85-700.05,1118.78-863.35,918.93-862.61z"/>
			<path d="M907.72-417.67c12.56,0,24.36-0.01,36.17,0c7.34,0.01,8.05,0.71,8.06,7.97c0.02,17,0.02,33.99-0.01,50.99
				c-0.01,6.67-0.81,7.43-7.54,7.43c-51.82,0.01-103.64,0.01-155.46,0c-6.54,0-7.56-1.01-7.58-7.51c-0.03-16-0.03-31.99,0-47.99
				c0.01-6.58,1.2-7.73,8-7.74c11.83-0.03,23.67-0.24,35.49,0.1c4.94,0.14,6.08-1.53,6.07-6.24c-0.13-84.65-0.08-169.29-0.1-253.94
				c0-15.18,0.09-13.2,13.33-13.25c16.33-0.05,32.66-0.02,48.99-0.01c7.54,0,8.49,1.01,8.54,8.75c0.31,45.82,0.63,91.64,0.95,137.46
				c0.01,1.28,0,2.56,0,3.27c8.13-6.65,15.83-13.96,24.51-19.83c18.63-12.59,39.16-20.27,62.02-18.37
				c40.36,3.35,74.59,19.68,100.06,51.59c28.85,36.14,33.29,76.89,19.77,120.27c-10.41,33.41-29.74,61.59-52.14,87.86
				c-18.11,21.22-38.34,40.3-60.2,57.64c-0.39,0.31-0.75,0.66-1.16,0.95c-2.37,1.64-4.59,4.72-7.84,2.33
				c-3.27-2.4-1.11-5.4-0.08-8.14c11.75-31.3,24.15-62.37,35.01-93.97c6.36-18.5,11.18-37.65,15.04-56.85
				c3.82-19.02,3.17-38.13-7.04-55.71c-10.62-18.29-27.81-26.23-47.59-29.44c-31.51-5.1-54.99,8.94-66.55,38.86
				C911.08-447.37,908.53-433.1,907.72-417.67z"/>
			<path d="M813.83-315.7c7.5,0,15,0.02,22.5-0.01c3.26-0.01,5.43,0.96,5.59,4.75c0.53,12.29,1.44,24.57,1.7,36.86
				c0.11,5.1,1.96,8.45,6.17,11.06c12.33,7.63,27.22,7.36,39.11-0.71c3.49-2.37,5.09-5.32,5.23-9.56
				c0.43-12.64,1.14-25.27,1.73-37.91c0.15-3.1,1.88-4.5,4.85-4.47c16.48,0.16,32.97,0.43,49.45,0.48c3.42,0.01,4.85,1.69,5.41,4.61
				c0.6,3.11,1.24,6.22,1.56,9.36c0.96,9.64,3.51,19.52,2.32,28.91c-3.42,26.99-9.67,53.12-33.44,70.77
				c-12.66,9.4-27.06,13.95-42.41,16.26c-17.87,2.69-35.32,0.63-52.05-5.61c-29.1-10.86-44.45-33.21-50.1-62.91
				c-3.4-17.85-2.7-35.77,0.1-53.63c1.11-7.06,1.61-7.75,8.81-8.08c7.81-0.37,15.66-0.08,23.49-0.08
				C813.83-315.63,813.83-315.67,813.83-315.7z"/>
			<path d="M670.84-631.65c0.34-32.6,3.39-57.29,14.71-80.18c11.8-23.86,29.39-41.81,54.72-51.39c1.4-0.53,2.82-1.28,4.26-1.33
				c1.34-0.05,3.31,0.29,3.93,1.2c0.76,1.11,1.09,3.41,0.43,4.45c-10.85,17.18-8.82,35.7-5.53,54.2
				c5.79,32.54,18.02,62.9,32.03,92.62c3.15,6.68,2.65,7.81-4.35,9.79c-21.91,6.22-42.37,15.32-58.44,32.01
				c-5.37,5.57-9.82,12.13-14.06,18.64c-3.8,5.84-6.19,6.2-9.99,0.24c-7.5-11.75-11.07-24.97-13.04-38.48
				C673.11-606.16,671.82-622.59,670.84-631.65z"/>
			<path d="M1174.12-638.78c-0.76,23.26-2.21,46.69-9.56,69.21c-2.24,6.87-5.91,13.36-9.56,19.65c-2.35,4.06-5.24,3.7-7.45-0.49
				c-11.37-21.59-29.93-34.9-51.56-44.44c-7.27-3.2-15.04-5.32-22.68-7.58c-5.78-1.71-6.71-3.33-4.02-8.92
				c12.88-26.75,23.74-54.27,30.39-83.25c3.72-16.21,6.77-32.66,2.62-49.29c-1.18-4.75-3.84-9.11-5.55-13.75
				c-0.62-1.68-1.22-4.52-0.38-5.31c1.19-1.13,3.96-1.61,5.62-1.06c26.84,8.93,45.2,27.43,57.51,52.26
				C1170.85-688.89,1173.84-664.19,1174.12-638.78z"/>
		</g>
	</g>
</g>
<g id="Layer_2">
	<circle class="st2" cx="919.06" cy="540" r="342.89"/>
</g>
<g id="Layer_1_copy">
	<g>
		<g>
			<path class="st3" d="M1352.66,495.05c-1.98-8.53-1.52-17.61-3.38-26.18c-4.14-19.09-8.2-38.27-13.78-56.97
				c-19.33-64.75-52.94-121.44-99.39-170.36c-56.41-59.41-124.33-99.77-203.52-121.07c-24.12-6.49-48.66-11.87-73.51-12.54
				c-34.04-0.93-68.18-2.48-102.21,3.09c-25.15,4.12-49.85,9.74-73.9,17.83c-28.87,9.71-56.42,22.52-82.58,38.27
				c-67.75,40.77-120.7,95.76-158.84,165c-18.04,32.75-31.85,67.25-40.15,103.7c-4.37,19.19-7.78,38.71-9.85,58.27
				c-1.56,14.82-0.31,29.94-0.31,44.92c-0.55,0.02-1.09,0.04-1.64,0.05c0.98,18.75,0.89,37.63,3.24,56.21
				c2.45,19.34,6.31,38.63,11.21,57.52c11.47,44.26,30.39,85.35,55.54,123.55c32.18,48.89,72.51,89.72,121.09,122.39
				c41.62,27.99,86.74,48,135.34,60.47c22.41,5.76,45.17,9.66,68.04,11.79c27.29,2.55,54.83,3.19,82.15-1.11
				c17.2-2.71,34.5-5.01,51.53-8.61c41.91-8.85,81.26-24.62,118.42-45.87c52.32-29.92,96.53-69.05,132.61-117.3
				c29.95-40.03,52.37-83.91,67.03-131.78c6.71-21.93,11.86-44.18,14.84-66.9c1.98-15.06,4.31-30.2,4.59-45.35
				C1355.59,534.42,1357.2,514.63,1352.66,495.05z M909.58,903.02c-190.66-4.19-354.31-160.6-352.95-365.88
				c1.31-196.44,161.86-359.33,362.3-358.86c199.85-0.74,362.92,162.56,362.57,363.22C1281.16,738.29,1120.44,907.66,909.58,903.02z
				"/>
			<path class="st4" d="M1108.99,636.17c-10.41,33.41-29.74,61.59-52.14,87.86c-18.11,21.22-38.34,40.29-60.2,57.63
				c-0.4,0.31-0.76,0.67-1.17,0.95c-2.37,1.64-4.58,4.72-7.84,2.33c-3.28-2.39-1.11-5.4-0.09-8.14
				c11.75-31.29,24.15-62.36,35.02-93.96c6.36-18.5,11.18-37.66,15.03-56.85c3.82-19.01,3.17-38.13-7.04-55.71
				c-10.62-18.28-27.81-26.23-47.59-29.43c-31.5-5.11-54.99,8.94-66.55,38.86c-5.34,13.81-7.89,28.08-8.7,43.51
				c12.56,0,24.37-0.01,36.17,0.01c7.34,0.01,8.05,0.7,8.06,7.97c0.02,16.99,0.02,33.99-0.01,50.98c-0.02,6.68-0.81,7.44-7.54,7.44
				c-51.82,0.01-103.64,0.01-155.47,0c-6.54,0-7.56-1.01-7.57-7.51c-0.03-16-0.03-31.99,0-47.99c0.01-6.58,1.2-7.72,8-7.74
				c11.83-0.03,23.67-0.24,35.49,0.1c4.94,0.15,6.08-1.52,6.07-6.24c-0.13-84.65-0.07-169.29-0.1-253.94
				c0-15.18,0.09-13.2,13.33-13.24c16.33-0.06,32.66-0.03,48.99-0.02c7.54,0.01,8.49,1.01,8.54,8.75
				c0.31,45.82,0.63,91.64,0.95,137.46c0.01,1.28,0,2.56,0,3.26c8.13-6.64,15.83-13.96,24.51-19.83
				c18.63-12.59,39.17-20.26,62.02-18.37c40.37,3.36,74.59,19.69,100.06,51.59C1118.07,552.04,1122.5,592.79,1108.99,636.17z"/>
			<path class="st5" d="M959.43,768.58c-3.42,26.99-9.67,53.12-33.45,70.77c-12.66,9.4-27.06,13.95-42.41,16.26
				c-17.87,2.69-35.32,0.63-52.05-5.61c-29.1-10.86-44.45-33.22-50.1-62.91c-3.4-17.85-2.7-35.77,0.1-53.64
				c1.11-7.05,1.61-7.74,8.82-8.08c7.81-0.37,15.66-0.08,23.49-0.08v-0.1c7.5,0,15,0.02,22.5-0.01c3.26-0.01,5.42,0.96,5.59,4.76
				c0.53,12.29,1.44,24.57,1.69,36.86c0.11,5.1,1.96,8.45,6.18,11.06c12.32,7.64,27.22,7.37,39.11-0.71
				c3.48-2.37,5.08-5.32,5.22-9.56c0.43-12.64,1.14-25.27,1.73-37.9c0.15-3.1,1.88-4.5,4.85-4.48c16.48,0.17,32.96,0.44,49.45,0.48
				c3.42,0.01,4.84,1.69,5.4,4.62c0.6,3.11,1.25,6.22,1.56,9.36C958.07,749.31,960.62,759.19,959.43,768.58z"/>
			<path class="st6" d="M900.2,746.88c-1.71,13.49-4.82,26.56-16.68,35.39c-6.31,4.7-13.49,6.97-21.15,8.13
				c-8.91,1.34-17.61,0.32-25.95-2.8c-14.51-5.43-22.16-16.61-24.98-31.46c-1.7-8.92-1.35-17.89,0.05-26.82
				c0.55-3.53,0.8-3.87,4.4-4.04c3.89-0.18,7.81-0.04,11.71-0.04v-0.05c3.74,0,7.48,0.01,11.22-0.01c1.63-0.01,2.7,0.48,2.79,2.38
				c0.26,6.15,0.72,12.28,0.84,18.43c0.05,2.55,0.98,4.23,3.08,5.53c6.14,3.82,13.57,3.69,19.5-0.35c1.74-1.18,2.53-2.66,2.6-4.78
				c0.21-6.32,0.57-12.64,0.86-18.95c0.07-1.55,0.94-2.25,2.42-2.24c8.22,0.08,16.43,0.22,24.66,0.24c1.71,0.01,2.41,0.84,2.69,2.31
				c0.3,1.56,0.62,3.11,0.78,4.68C899.52,737.24,900.79,742.18,900.2,746.88z"/>
			<path class="st4" d="M771.04,438.6c-21.92,6.22-42.37,15.32-58.45,32.01c-5.36,5.57-9.82,12.12-14.06,18.64
				c-3.8,5.84-6.18,6.2-9.99,0.24c-7.51-11.75-11.07-24.97-13.05-38.48c-2.38-16.28-3.67-32.71-4.65-41.77
				c0.34-32.6,3.39-57.29,14.71-80.18c11.8-23.86,29.39-41.81,54.72-51.39c1.4-0.53,2.83-1.28,4.26-1.33
				c1.34-0.05,3.3,0.29,3.93,1.19c0.75,1.11,1.08,3.41,0.43,4.46c-10.85,17.18-8.83,35.69-5.53,54.19
				c5.78,32.54,18.01,62.91,32.03,92.63C778.54,435.49,778.03,436.61,771.04,438.6z"/>
			<path class="st4" d="M1174.12,402.11c-0.76,23.25-2.21,46.68-9.55,69.2c-2.24,6.87-5.91,13.36-9.56,19.65
				c-2.35,4.07-5.24,3.71-7.45-0.48c-11.36-21.59-29.93-34.9-51.56-44.44c-7.27-3.2-15.04-5.32-22.68-7.58
				c-5.78-1.71-6.71-3.33-4.02-8.92c12.88-26.75,23.74-54.26,30.39-83.25c3.72-16.21,6.76-32.66,2.62-49.29
				c-1.19-4.75-3.85-9.11-5.55-13.76c-0.62-1.68-1.22-4.52-0.38-5.31c1.18-1.13,3.95-1.61,5.61-1.06
				c26.84,8.93,45.21,27.43,57.52,52.26C1170.85,352,1173.84,376.7,1174.12,402.11z"/>
		</g>
	</g>
</g>
</svg>
